<svg width="181" height="106" viewBox="0 0 181 106" fill="none" xmlns="http://www.w3.org/2000/svg">
<path d="M2.352 36.12C1.952 36.12 1.616 35.992 1.344 35.736C1.088 35.464 0.96 35.136 0.96 34.752C0.96 34.368 1.088 34.048 1.344 33.792C1.616 33.52 1.952 33.384 2.352 33.384C2.736 33.384 3.056 33.52 3.312 33.792C3.584 34.048 3.72 34.368 3.72 34.752C3.72 35.136 3.584 35.464 3.312 35.736C3.056 35.992 2.736 36.12 2.352 36.12ZM140.322 39.648C139.234 39.648 138.354 39.344 137.682 38.736C137.01 38.144 136.674 37.248 136.674 36.048C136.674 35.504 136.714 35.016 136.794 34.584C136.89 34.136 136.978 33.68 137.058 33.216C137.154 32.752 137.202 32.208 137.202 31.584C137.202 31.008 137.034 30.472 136.698 29.976C136.362 29.464 135.706 29.104 134.73 28.896V27.264C135.706 27.056 136.362 26.704 136.698 26.208C137.034 25.712 137.202 25.168 137.202 24.576C137.202 23.968 137.154 23.432 137.058 22.968C136.978 22.504 136.89 22.056 136.794 21.624C136.714 21.176 136.674 20.68 136.674 20.136C136.674 18.92 137.01 18.016 137.682 17.424C138.354 16.832 139.234 16.536 140.322 16.536H141.594V18.264H140.682C140.01 18.264 139.498 18.424 139.146 18.744C138.81 19.048 138.642 19.568 138.642 20.304C138.642 20.768 138.682 21.216 138.762 21.648C138.842 22.064 138.922 22.512 139.002 22.992C139.098 23.456 139.146 24.008 139.146 24.648C139.146 25.496 138.93 26.224 138.498 26.832C138.082 27.44 137.41 27.848 136.482 28.056V28.104C137.41 28.328 138.082 28.744 138.498 29.352C138.93 29.96 139.146 30.688 139.146 31.536C139.146 32.16 139.098 32.712 139.002 33.192C138.922 33.656 138.842 34.104 138.762 34.536C138.682 34.952 138.642 35.4 138.642 35.88C138.642 36.6 138.81 37.12 139.146 37.44C139.498 37.76 140.01 37.92 140.682 37.92H141.594V39.648H140.322ZM9.99956 101.648V99.92H10.9116C11.5676 99.92 12.0716 99.76 12.4236 99.44C12.7756 99.12 12.9516 98.6 12.9516 97.88C12.9516 97.4 12.9116 96.952 12.8316 96.536C12.7516 96.104 12.6636 95.656 12.5676 95.192C12.4876 94.712 12.4476 94.16 12.4476 93.536C12.4476 92.688 12.6556 91.96 13.0716 91.352C13.4876 90.744 14.1676 90.328 15.1116 90.104V90.056C14.1676 89.848 13.4876 89.44 13.0716 88.832C12.6556 88.224 12.4476 87.496 12.4476 86.648C12.4476 86.008 12.4876 85.456 12.5676 84.992C12.6636 84.512 12.7516 84.064 12.8316 83.648C12.9116 83.216 12.9516 82.768 12.9516 82.304C12.9516 81.568 12.7756 81.048 12.4236 80.744C12.0716 80.424 11.5676 80.264 10.9116 80.264H9.99956V78.536H11.2716C12.3596 78.536 13.2316 78.832 13.8876 79.424C14.5596 80.016 14.8956 80.92 14.8956 82.136C14.8956 82.68 14.8556 83.176 14.7756 83.624C14.6956 84.056 14.6076 84.504 14.5116 84.968C14.4316 85.432 14.3916 85.968 14.3916 86.576C14.3916 87.168 14.5596 87.712 14.8956 88.208C15.2316 88.704 15.8876 89.056 16.8636 89.264V90.896C15.8876 91.104 15.2316 91.464 14.8956 91.976C14.5596 92.472 14.3916 93.008 14.3916 93.584C14.3916 94.208 14.4316 94.752 14.5116 95.216C14.6076 95.68 14.6956 96.136 14.7756 96.584C14.8556 97.016 14.8956 97.504 14.8956 98.048C14.8956 99.248 14.5596 100.144 13.8876 100.736C13.2316 101.344 12.3596 101.648 11.2716 101.648H9.99956Z" fill="#FF0077"/>
<path d="M7.7595 36V19.2H14.5035C16.2475 19.2 17.5755 19.608 18.4875 20.424C19.4155 21.224 19.8795 22.256 19.8795 23.52C19.8795 24.576 19.5915 25.424 19.0155 26.064C18.4555 26.688 17.7675 27.112 16.9515 27.336C17.9115 27.528 18.7035 28.008 19.3275 28.776C19.9515 29.528 20.2635 30.408 20.2635 31.416C20.2635 32.744 19.7835 33.84 18.8235 34.704C17.8635 35.568 16.5035 36 14.7435 36H7.7595ZM10.8315 26.256H14.0475C14.9115 26.256 15.5755 26.056 16.0395 25.656C16.5035 25.256 16.7355 24.688 16.7355 23.952C16.7355 23.248 16.5035 22.696 16.0395 22.296C15.5915 21.88 14.9115 21.672 13.9995 21.672H10.8315V26.256ZM10.8315 33.504H14.2635C15.1755 33.504 15.8795 33.296 16.3755 32.88C16.8875 32.448 17.1435 31.848 17.1435 31.08C17.1435 30.296 16.8795 29.68 16.3515 29.232C15.8235 28.784 15.1115 28.56 14.2155 28.56H10.8315V33.504ZM30.0521 36.288C28.8521 36.288 27.7881 36.032 26.8601 35.52C25.9321 35.008 25.2041 34.288 24.6761 33.36C24.1481 32.432 23.8841 31.36 23.8841 30.144C23.8841 28.912 24.1401 27.816 24.6521 26.856C25.1801 25.896 25.9001 25.152 26.8121 24.624C27.7401 24.08 28.8281 23.808 30.0761 23.808C31.2441 23.808 32.2761 24.064 33.1721 24.576C34.0681 25.088 34.7641 25.792 35.2601 26.688C35.7721 27.568 36.0281 28.552 36.0281 29.64C36.0281 29.816 36.0201 30 36.0041 30.192C36.0041 30.384 35.9961 30.584 35.9801 30.792H26.9321C26.9961 31.72 27.3161 32.448 27.8921 32.976C28.4841 33.504 29.1961 33.768 30.0281 33.768C30.6521 33.768 31.1721 33.632 31.5881 33.36C32.0201 33.072 32.3401 32.704 32.5481 32.256H35.6681C35.4441 33.008 35.0681 33.696 34.5401 34.32C34.0281 34.928 33.3881 35.408 32.6201 35.76C31.8681 36.112 31.0121 36.288 30.0521 36.288ZM30.0761 26.304C29.3241 26.304 28.6601 26.52 28.0841 26.952C27.5081 27.368 27.1401 28.008 26.9801 28.872H32.9081C32.8601 28.088 32.5721 27.464 32.0441 27C31.5161 26.536 30.8601 26.304 30.0761 26.304ZM40.0519 36V24.096H42.7639L43.0039 26.112C43.3719 25.408 43.8999 24.848 44.5879 24.432C45.2919 24.016 46.1159 23.808 47.0599 23.808C48.5319 23.808 49.6759 24.272 50.4919 25.2C51.3079 26.128 51.7159 27.488 51.7159 29.28V36H48.6439V29.568C48.6439 28.544 48.4359 27.76 48.0199 27.216C47.6039 26.672 46.9559 26.4 46.0759 26.4C45.2119 26.4 44.4999 26.704 43.9399 27.312C43.3959 27.92 43.1239 28.768 43.1239 29.856V36H40.0519ZM57.7974 22.248C57.2374 22.248 56.7734 22.08 56.4054 21.744C56.0534 21.408 55.8774 20.984 55.8774 20.472C55.8774 19.96 56.0534 19.544 56.4054 19.224C56.7734 18.888 57.2374 18.72 57.7974 18.72C58.3574 18.72 58.8134 18.888 59.1654 19.224C59.5334 19.544 59.7174 19.96 59.7174 20.472C59.7174 20.984 59.5334 21.408 59.1654 21.744C58.8134 22.08 58.3574 22.248 57.7974 22.248ZM53.8374 41.28V38.664H54.7734C55.3014 38.664 55.6774 38.56 55.9014 38.352C56.1254 38.144 56.2374 37.792 56.2374 37.296V24.096H59.3094V37.296C59.3094 38.736 58.9414 39.76 58.2054 40.368C57.4854 40.976 56.5014 41.28 55.2534 41.28H53.8374ZM68.0593 36.288C67.0353 36.288 66.1953 36.128 65.5393 35.808C64.8833 35.472 64.3953 35.032 64.0753 34.488C63.7553 33.944 63.5953 33.344 63.5953 32.688C63.5953 31.584 64.0273 30.688 64.8913 30C65.7553 29.312 67.0513 28.968 68.7793 28.968H71.8033V28.68C71.8033 27.864 71.5713 27.264 71.1073 26.88C70.6433 26.496 70.0673 26.304 69.3793 26.304C68.7553 26.304 68.2113 26.456 67.7473 26.76C67.2833 27.048 66.9953 27.48 66.8833 28.056H63.8833C63.9633 27.192 64.2513 26.44 64.7473 25.8C65.2593 25.16 65.9153 24.672 66.7153 24.336C67.5153 23.984 68.4113 23.808 69.4033 23.808C71.0993 23.808 72.4353 24.232 73.4113 25.08C74.3873 25.928 74.8753 27.128 74.8753 28.68V36H72.2593L71.9713 34.08C71.6193 34.72 71.1233 35.248 70.4833 35.664C69.8593 36.08 69.0513 36.288 68.0593 36.288ZM68.7553 33.888C69.6353 33.888 70.3153 33.6 70.7953 33.024C71.2913 32.448 71.6033 31.736 71.7313 30.888H69.1153C68.2993 30.888 67.7153 31.04 67.3633 31.344C67.0113 31.632 66.8353 31.992 66.8353 32.424C66.8353 32.888 67.0113 33.248 67.3633 33.504C67.7153 33.76 68.1793 33.888 68.7553 33.888ZM79.2469 36V24.096H81.9589L82.2229 25.704C82.6069 25.128 83.1109 24.672 83.7349 24.336C84.3749 23.984 85.1109 23.808 85.9429 23.808C87.7829 23.808 89.0869 24.52 89.8549 25.944C90.2869 25.288 90.8629 24.768 91.5829 24.384C92.3189 24 93.1189 23.808 93.9829 23.808C95.5349 23.808 96.7269 24.272 97.5589 25.2C98.3909 26.128 98.8069 27.488 98.8069 29.28V36H95.7349V29.568C95.7349 28.544 95.5349 27.76 95.1349 27.216C94.7509 26.672 94.1509 26.4 93.3349 26.4C92.5029 26.4 91.8309 26.704 91.3189 27.312C90.8229 27.92 90.5749 28.768 90.5749 29.856V36H87.5029V29.568C87.5029 28.544 87.3029 27.76 86.9029 27.216C86.5029 26.672 85.8869 26.4 85.0549 26.4C84.2389 26.4 83.5749 26.704 83.0629 27.312C82.5669 27.92 82.3189 28.768 82.3189 29.856V36H79.2469ZM104.819 22.248C104.259 22.248 103.795 22.08 103.427 21.744C103.075 21.408 102.899 20.984 102.899 20.472C102.899 19.96 103.075 19.544 103.427 19.224C103.795 18.888 104.259 18.72 104.819 18.72C105.379 18.72 105.835 18.888 106.187 19.224C106.555 19.544 106.739 19.96 106.739 20.472C106.739 20.984 106.555 21.408 106.187 21.744C105.835 22.08 105.379 22.248 104.819 22.248ZM103.283 36V24.096H106.355V36H103.283ZM111.002 36V24.096H113.714L113.954 26.112C114.322 25.408 114.85 24.848 115.538 24.432C116.242 24.016 117.066 23.808 118.01 23.808C119.482 23.808 120.626 24.272 121.442 25.2C122.258 26.128 122.666 27.488 122.666 29.28V36H119.594V29.568C119.594 28.544 119.386 27.76 118.97 27.216C118.554 26.672 117.906 26.4 117.026 26.4C116.162 26.4 115.45 26.704 114.89 27.312C114.346 27.92 114.074 28.768 114.074 29.856V36H111.002ZM23.1082 67V50.2H26.1802V56.992L32.3963 50.2H36.1883L29.9963 56.872L36.3562 67H32.5883L27.7882 59.224L26.1802 60.976V67H23.1082ZM43.1115 67.288C42.0875 67.288 41.2475 67.128 40.5915 66.808C39.9355 66.472 39.4475 66.032 39.1275 65.488C38.8075 64.944 38.6475 64.344 38.6475 63.688C38.6475 62.584 39.0795 61.688 39.9435 61C40.8075 60.312 42.1035 59.968 43.8315 59.968H46.8555V59.68C46.8555 58.864 46.6235 58.264 46.1595 57.88C45.6955 57.496 45.1195 57.304 44.4315 57.304C43.8075 57.304 43.2635 57.456 42.7995 57.76C42.3355 58.048 42.0475 58.48 41.9355 59.056H38.9355C39.0155 58.192 39.3035 57.44 39.7995 56.8C40.3115 56.16 40.9675 55.672 41.7675 55.336C42.5675 54.984 43.4635 54.808 44.4555 54.808C46.1515 54.808 47.4875 55.232 48.4635 56.08C49.4395 56.928 49.9275 58.128 49.9275 59.68V67H47.3115L47.0235 65.08C46.6715 65.72 46.1755 66.248 45.5355 66.664C44.9115 67.08 44.1035 67.288 43.1115 67.288ZM43.8075 64.888C44.6875 64.888 45.3675 64.6 45.8475 64.024C46.3435 63.448 46.6555 62.736 46.7835 61.888H44.1675C43.3515 61.888 42.7675 62.04 42.4155 62.344C42.0635 62.632 41.8875 62.992 41.8875 63.424C41.8875 63.888 42.0635 64.248 42.4155 64.504C42.7675 64.76 43.2315 64.888 43.8075 64.888ZM54.2991 67V49.72H57.3711V67H54.2991ZM67.254 67C66.006 67 65.006 66.696 64.254 66.088C63.502 65.48 63.126 64.4 63.126 62.848V57.664H61.086V55.096H63.126L63.486 51.904H66.198V55.096H69.414V57.664H66.198V62.872C66.198 63.448 66.318 63.848 66.558 64.072C66.814 64.28 67.246 64.384 67.854 64.384H69.342V67H67.254ZM78.9709 67.288C77.7709 67.288 76.7069 67.032 75.7789 66.52C74.8509 66.008 74.1229 65.288 73.5949 64.36C73.0669 63.432 72.8029 62.36 72.8029 61.144C72.8029 59.912 73.0589 58.816 73.5709 57.856C74.0989 56.896 74.8189 56.152 75.7309 55.624C76.6589 55.08 77.7469 54.808 78.9949 54.808C80.1629 54.808 81.1949 55.064 82.0909 55.576C82.9869 56.088 83.6829 56.792 84.1789 57.688C84.6909 58.568 84.9469 59.552 84.9469 60.64C84.9469 60.816 84.9389 61 84.9229 61.192C84.9229 61.384 84.9149 61.584 84.8989 61.792H75.8509C75.9149 62.72 76.2349 63.448 76.8109 63.976C77.4029 64.504 78.1149 64.768 78.9469 64.768C79.5709 64.768 80.0909 64.632 80.5069 64.36C80.9389 64.072 81.2589 63.704 81.4669 63.256H84.5869C84.3629 64.008 83.9869 64.696 83.4589 65.32C82.9469 65.928 82.3069 66.408 81.5389 66.76C80.7869 67.112 79.9309 67.288 78.9709 67.288ZM78.9949 57.304C78.2429 57.304 77.5789 57.52 77.0029 57.952C76.4269 58.368 76.0589 59.008 75.8989 59.872H81.8269C81.7789 59.088 81.4909 58.464 80.9629 58C80.4349 57.536 79.7789 57.304 78.9949 57.304ZM88.9706 67V55.096H91.6826L91.9226 57.112C92.2906 56.408 92.8186 55.848 93.5066 55.432C94.2106 55.016 95.0346 54.808 95.9786 54.808C97.4506 54.808 98.5946 55.272 99.4106 56.2C100.227 57.128 100.635 58.488 100.635 60.28V67H97.5626V60.568C97.5626 59.544 97.3546 58.76 96.9386 58.216C96.5226 57.672 95.8746 57.4 94.9946 57.4C94.1306 57.4 93.4186 57.704 92.8586 58.312C92.3146 58.92 92.0426 59.768 92.0426 60.856V67H88.9706ZM112.068 67.288C111.172 67.288 110.388 67.12 109.716 66.784C109.044 66.448 108.5 65.976 108.084 65.368L107.748 67H105.012V49.72H108.084V56.8C108.468 56.272 108.972 55.808 109.596 55.408C110.236 55.008 111.06 54.808 112.068 54.808C113.188 54.808 114.188 55.08 115.068 55.624C115.948 56.168 116.644 56.912 117.156 57.856C117.668 58.8 117.924 59.872 117.924 61.072C117.924 62.272 117.668 63.344 117.156 64.288C116.644 65.216 115.948 65.952 115.068 66.496C114.188 67.024 113.188 67.288 112.068 67.288ZM111.42 64.6C112.396 64.6 113.204 64.272 113.844 63.616C114.484 62.96 114.804 62.112 114.804 61.072C114.804 60.032 114.484 59.176 113.844 58.504C113.204 57.832 112.396 57.496 111.42 57.496C110.428 57.496 109.612 57.832 108.972 58.504C108.348 59.16 108.036 60.008 108.036 61.048C108.036 62.088 108.348 62.944 108.972 63.616C109.612 64.272 110.428 64.6 111.42 64.6ZM126.212 67.288C125.188 67.288 124.348 67.128 123.692 66.808C123.036 66.472 122.548 66.032 122.228 65.488C121.908 64.944 121.748 64.344 121.748 63.688C121.748 62.584 122.18 61.688 123.044 61C123.908 60.312 125.204 59.968 126.932 59.968H129.956V59.68C129.956 58.864 129.724 58.264 129.26 57.88C128.796 57.496 128.22 57.304 127.532 57.304C126.908 57.304 126.364 57.456 125.9 57.76C125.436 58.048 125.148 58.48 125.036 59.056H122.036C122.116 58.192 122.404 57.44 122.9 56.8C123.412 56.16 124.068 55.672 124.868 55.336C125.668 54.984 126.564 54.808 127.556 54.808C129.252 54.808 130.588 55.232 131.564 56.08C132.54 56.928 133.028 58.128 133.028 59.68V67H130.412L130.124 65.08C129.772 65.72 129.276 66.248 128.636 66.664C128.012 67.08 127.204 67.288 126.212 67.288ZM126.908 64.888C127.788 64.888 128.468 64.6 128.948 64.024C129.444 63.448 129.756 62.736 129.884 61.888H127.268C126.452 61.888 125.868 62.04 125.516 62.344C125.164 62.632 124.988 62.992 124.988 63.424C124.988 63.888 125.164 64.248 125.516 64.504C125.868 64.76 126.332 64.888 126.908 64.888ZM143.232 67.288C142.016 67.288 140.944 67.024 140.016 66.496C139.088 65.968 138.352 65.232 137.808 64.288C137.28 63.344 137.016 62.264 137.016 61.048C137.016 59.832 137.28 58.752 137.808 57.808C138.352 56.864 139.088 56.128 140.016 55.6C140.944 55.072 142.016 54.808 143.232 54.808C144.752 54.808 146.032 55.208 147.072 56.008C148.112 56.792 148.776 57.88 149.064 59.272H145.824C145.664 58.696 145.344 58.248 144.864 57.928C144.4 57.592 143.848 57.424 143.208 57.424C142.36 57.424 141.64 57.744 141.048 58.384C140.456 59.024 140.16 59.912 140.16 61.048C140.16 62.184 140.456 63.072 141.048 63.712C141.64 64.352 142.36 64.672 143.208 64.672C143.848 64.672 144.4 64.512 144.864 64.192C145.344 63.872 145.664 63.416 145.824 62.824H149.064C148.776 64.168 148.112 65.248 147.072 66.064C146.032 66.88 144.752 67.288 143.232 67.288ZM153.231 67V49.72H156.303V56.92C156.703 56.264 157.239 55.752 157.911 55.384C158.599 55 159.383 54.808 160.263 54.808C161.735 54.808 162.871 55.272 163.671 56.2C164.487 57.128 164.895 58.488 164.895 60.28V67H161.847V60.568C161.847 59.544 161.639 58.76 161.223 58.216C160.823 57.672 160.183 57.4 159.303 57.4C158.439 57.4 157.719 57.704 157.143 58.312C156.583 58.92 156.303 59.768 156.303 60.856V67H153.231Z" fill="black"/>
</svg>
